<?xml version="1.0" encoding="UTF-8"?>
<svg version="1.1" xmlns="http://www.w3.org/2000/svg" width="2000" height="292">
<path d="M0 0 C26.73 0 53.46 0 81 0 C81 96.36 81 192.72 81 292 C54.27 292 27.54 292 0 292 C0 195.64 0 99.28 0 0 Z " fill="#6DD1F4" transform="translate(199,0)"/>
<path d="M0 0 C26.73 0 53.46 0 81 0 C81 96.36 81 192.72 81 292 C54.27 292 27.54 292 0 292 C0 195.64 0 99.28 0 0 Z " fill="#6DD7F4" transform="translate(102,0)"/>
<path d="M0 0 C26.73 0 53.46 0 81 0 C81 96.36 81 192.72 81 292 C54.27 292 27.54 292 0 292 C0 195.64 0 99.28 0 0 Z " fill="#6CDEF4" transform="translate(4,0)"/>
<path d="M0 0 C8.91 0 17.82 0 27 0 C27.00879936 2.95130608 27.00879936 2.95130608 27.01777649 5.9622345 C27.0745049 24.51595003 27.14761602 43.06954971 27.23571491 61.6231432 C27.28061425 71.1614299 27.32004237 80.69967976 27.34643555 90.23803711 C27.36946317 98.55502371 27.40291422 106.87189312 27.44870156 115.18878669 C27.47256967 119.58948115 27.49134036 123.99006001 27.49761391 128.39081764 C27.50369391 132.54000885 27.52379804 136.68890453 27.55427551 140.83798599 C27.56300928 142.35398615 27.56678807 143.870025 27.56500816 145.38604927 C27.55667888 155.76166593 27.62499393 167.00822596 34.4296875 175.50390625 C40.66448021 181.4440197 48.66826525 183.88598806 57.10546875 184.06640625 C65.4457393 183.74374631 72.70793425 182.17385207 78.84375 176.20703125 C86.40832314 166.91818041 86.44553711 156.61344508 86.43237305 145.19897461 C86.44140181 143.61145266 86.45173175 142.02393767 86.46325684 140.43643188 C86.49072225 136.14989278 86.50009706 131.86348634 86.50611091 127.57687068 C86.51552192 123.08851206 86.54172745 118.60025146 86.56611633 114.11195374 C86.60971017 105.62306564 86.63830078 97.13419664 86.66143972 88.64523083 C86.68852961 78.97646745 86.73243874 69.30780303 86.77772844 59.63911045 C86.87047277 39.75945858 86.94160363 19.87977989 87 0 C95.91 0 104.82 0 114 0 C114.06956204 21.17567481 114.12304274 42.35132193 114.15543652 63.52708817 C114.17087988 73.36022084 114.19192085 83.19328104 114.22631836 93.02636719 C114.25629837 101.60075645 114.27559338 110.1750932 114.28226548 118.74953341 C114.28616321 123.28612443 114.29527024 127.82256527 114.31719017 132.35910797 C114.33769148 136.63708443 114.34380649 140.91485017 114.33932304 145.19287109 C114.34014218 146.75524799 114.34602607 148.31763261 114.35761642 149.87996674 C114.47489304 166.51734546 111.63796004 180.13733636 100.125 192.6875 C86.04830788 206.11035669 69.67599583 208.63149937 50.91015625 208.30859375 C36.0706554 207.74334644 22.35936236 201.67408153 12.10546875 190.78515625 C1.93127788 177.3265327 -0.30858744 163.52040702 -0.22705078 147.01538086 C-0.22648586 145.40816251 -0.22680481 143.80094364 -0.22793579 142.19372559 C-0.22850714 137.85344206 -0.21678825 133.51327019 -0.20278788 129.1730125 C-0.19024406 124.62865825 -0.18910715 120.08430114 -0.18673706 115.53993225 C-0.18053299 106.94475216 -0.16413675 98.34962325 -0.14403808 89.75446564 C-0.12164561 79.96484941 -0.11067724 70.17523068 -0.10064721 60.3855952 C-0.07976954 40.25703419 -0.04420932 20.12852213 0 0 Z " fill="#6BC5F3" transform="translate(347,44)"/>
<path d="M0 0 C8.91 0 17.82 0 27 0 C27 67.32 27 134.64 27 204 C18.09 204 9.18 204 0 204 C-0.495 199.545 -0.495 199.545 -1 195 C-1.9075 195.86625 -2.815 196.7325 -3.75 197.625 C-15.2669723 207.54043014 -27.13587296 208.72013811 -41.62011719 208.17919922 C-50.18081964 207.53459975 -57.36080777 203.1722469 -64 198 C-64.60457031 197.54496094 -65.20914062 197.08992187 -65.83203125 196.62109375 C-70.19534103 192.84875144 -72.71545659 188.25199972 -75.3125 183.1875 C-75.65031494 182.53604004 -75.98812988 181.88458008 -76.33618164 181.21337891 C-81.27037085 171.07025444 -81.32460892 160.52641378 -81.3359375 149.45703125 C-81.34238389 147.96025981 -81.34911353 146.46348956 -81.35610962 144.96672058 C-81.36802103 141.84098395 -81.37179694 138.7153573 -81.37060547 135.58959961 C-81.37040289 131.62720144 -81.39766867 127.66552537 -81.43214989 123.70329762 C-81.4546308 120.61361088 -81.45843658 117.52409195 -81.45738602 114.43433189 C-81.45971168 112.97580167 -81.4683589 111.51726457 -81.48405075 110.05881691 C-81.62316095 95.79249065 -79.49747894 82.82064 -71 71 C-70.2575 69.948125 -69.515 68.89625 -68.75 67.8125 C-59.19356263 58.03887087 -47.43941285 53.21374061 -33.875 52.75 C-20.47508202 52.93181707 -10.39137329 57.60862671 -1 67 C-0.67 44.89 -0.34 22.78 0 0 Z M-48.52734375 87.13671875 C-53.10465817 92.92817492 -54.11313458 99.71400491 -54.16113281 106.91674805 C-54.17074036 108.08533859 -54.1803479 109.25392914 -54.19024658 110.45793152 C-54.19449646 111.7131813 -54.19874634 112.96843109 -54.203125 114.26171875 C-54.20882507 115.56268997 -54.21452515 116.86366119 -54.22039795 118.20405579 C-54.23088084 120.95692329 -54.23674061 123.70976185 -54.24023438 126.46264648 C-54.24570099 129.96482302 -54.26970065 133.46660724 -54.29820633 136.96866131 C-54.32148387 140.33717171 -54.3232926 143.70563222 -54.328125 147.07421875 C-54.3404718 148.31934738 -54.3528186 149.56447601 -54.36553955 150.84733582 C-54.33821368 161.63119557 -52.98388843 170.16696819 -45.29296875 178.08203125 C-38.97906226 183.36333975 -32.05327945 184.71379259 -23.953125 184.37109375 C-15.50146095 183.30904602 -10.30164758 180.0200168 -4.69140625 173.70703125 C0.42705476 165.51512944 0.45490793 157.13168676 0.43359375 147.69140625 C0.43816635 146.31574753 0.44347509 144.94009109 0.44947815 143.56443787 C0.45836514 140.69414943 0.45603703 137.82413989 0.44604492 134.95385742 C0.43455981 131.30138821 0.45478092 127.64988656 0.48396206 123.99754429 C0.50243301 121.16023286 0.50201019 118.32314871 0.49632454 115.48579216 C0.49609957 113.49298343 0.512892 111.50019568 0.53013611 109.50746155 C0.45770294 99.99865432 -0.74685134 92.16536044 -7.4375 85.0625 C-14.91577678 78.27132985 -21.39631169 77.52370178 -31.296875 77.7265625 C-38.82666959 78.28255999 -43.4492661 81.7347546 -48.52734375 87.13671875 Z " fill="#6565F1" transform="translate(1768,44)"/>
<path d="M0 0 C9.24 0 18.48 0 28 0 C30.87937674 11.60308448 33.7542185 23.20728587 36.625 34.8125 C36.84474361 35.70078365 37.06448723 36.58906731 37.29088974 37.50426865 C45.60738224 71.12953558 53.78743606 104.78689876 61.89577866 138.46292782 C62.78433194 142.15302854 63.67344123 145.84299512 64.56272888 149.53291893 C64.9889516 151.30191356 65.41493003 153.07096707 65.84065247 154.84008217 C67.91825777 163.47146408 70.00983727 172.0982037 72.18896484 180.70458984 C72.35745154 181.37117835 72.52593824 182.03776686 72.6995306 182.72455502 C73.46923504 185.76585282 74.24496516 188.80540576 75.03022766 191.84272766 C75.29313095 192.8739122 75.55603424 193.90509674 75.8269043 194.9675293 C76.05532516 195.85111618 76.28374603 196.73470306 76.51908875 197.64506531 C77 200 77 200 77 204 C68.09 204 59.18 204 50 204 C48.71397494 198.804867 47.43079134 193.60920034 46.15478516 188.41162109 C45.71992278 186.64395903 45.28341169 184.8767017 44.84521484 183.10986328 C44.21537552 180.5690829 43.59149434 178.02690238 42.96875 175.484375 C42.77188599 174.69569031 42.57502197 173.90700562 42.37219238 173.09442139 C41.52183984 169.5999534 41 166.6185468 41 163 C23.18 163 5.36 163 -13 163 C-13.495 166.96 -13.495 166.96 -14 171 C-14.5780627 173.68442132 -15.18336335 176.33802255 -15.84765625 179 C-16.02380966 179.7211499 -16.19996307 180.4422998 -16.38145447 181.18530273 C-16.937595 183.4579258 -17.49992917 185.72896117 -18.0625 188 C-18.44377242 189.55328409 -18.82463553 191.10666871 -19.20507812 192.66015625 C-20.13124271 196.44149054 -21.06579239 200.22060885 -22 204 C-30.91 204 -39.82 204 -49 204 C-48.30721367 197.76492302 -47.45295038 192.07741264 -45.94067383 186.05908203 C-45.73159645 185.20729748 -45.52251907 184.35551292 -45.30710602 183.47791672 C-44.61240102 180.65320729 -43.90966844 177.8305583 -43.20703125 175.0078125 C-42.70706741 172.98069557 -42.20766631 170.95343977 -41.70878601 168.92605591 C-40.64021452 164.58765762 -39.56829521 160.25010635 -38.49365234 155.91320801 C-35.9377476 145.59770525 -33.39798548 135.27822386 -30.85734177 124.95895386 C-30.27590063 122.59771363 -29.69423656 120.23652829 -29.11235428 117.87539673 C-24.8593182 100.61719179 -20.64828931 83.34929302 -16.48046875 66.0703125 C-16.22408945 65.0076479 -15.96771015 63.94498329 -15.70356178 62.85011673 C-13.24479056 52.65664969 -10.79083643 42.4620301 -8.34145832 32.26630211 C-7.44836143 28.55067458 -6.55345233 24.83548508 -5.65815163 21.12038803 C-5.04658177 18.57932819 -4.43775523 16.0376215 -3.82902527 13.49588013 C-3.4649438 11.98452174 -3.10072055 10.4731975 -2.73632812 8.96191406 C-2.57342694 8.27820299 -2.41052576 7.59449192 -2.24268818 6.89006233 C-1.11393232 2.22786464 -1.11393232 2.22786464 0 0 Z M13 56 C10.38962425 66.65627144 7.78171126 77.31314223 5.17697144 87.97079277 C3.9675076 92.91914174 2.75718512 97.86727743 1.54492188 102.81494141 C0.37582126 107.58657887 -0.79105201 112.35875588 -1.95635986 117.13132095 C-2.40212129 118.95523746 -2.84869528 120.77895558 -3.29608154 122.60247421 C-3.92087159 125.1496697 -4.54281118 127.69754496 -5.1640625 130.24560547 C-5.35107727 131.00517548 -5.53809204 131.76474548 -5.73077393 132.54733276 C-6.66989629 136.23107624 -6.66989629 136.23107624 -7 140 C6.86 140 20.72 140 35 140 C30.80374214 121.75115766 26.48614236 103.53315685 22.07089233 85.33602905 C21.48061613 82.89810901 20.8932465 80.45948343 20.30874634 78.02017212 C19.47811118 74.55703628 18.63688208 71.09663933 17.79296875 67.63671875 C17.41517776 66.0480751 17.41517776 66.0480751 17.02975464 64.42733765 C16.79201324 63.46220245 16.55427185 62.49706726 16.30932617 61.50268555 C16.10393723 60.653853 15.89854828 59.80502045 15.68693542 58.9304657 C15.18051418 56.80161543 15.18051418 56.80161543 13 56 Z " fill="#689CF2" transform="translate(962,44)"/>
<path d="M0 0 C1.65140991 0.01135986 1.65140991 0.01135986 3.33618164 0.02294922 C11.00008699 0.17883297 17.6691715 0.85208115 24.5625 4.4375 C25.43519531 4.88480469 26.30789063 5.33210938 27.20703125 5.79296875 C39.27695267 12.54271491 48.11709744 21.92396426 52.07421875 35.421875 C52.71758564 38.07769351 53.21503431 40.72726764 53.5625 43.4375 C49.08734496 45.02835882 44.65610335 46.13221901 40 47.0625 C38.71996094 47.32289062 37.43992187 47.58328125 36.12109375 47.8515625 C33.16687646 48.33798686 30.54147684 48.56329173 27.5625 48.4375 C27.30855469 47.61765625 27.05460937 46.7978125 26.79296875 45.953125 C26.44878906 44.87546875 26.10460938 43.7978125 25.75 42.6875 C25.41355469 41.62015625 25.07710937 40.5528125 24.73046875 39.453125 C23.63877631 36.63444084 22.40960214 34.78739499 20.5625 32.4375 C20.5625 31.7775 20.5625 31.1175 20.5625 30.4375 C9.95086013 25.08344534 1.12196693 22.49036837 -10.75 25.625 C-18.51057806 28.32379077 -22.6335548 31.89895406 -26.4921875 39.15625 C-29.55928646 46.55784418 -29.31029302 54.75271497 -26.53515625 62.1875 C-24.45496177 66.45152854 -21.56961113 69.90304257 -18.4375 73.4375 C-17.84710937 74.12199219 -17.25671875 74.80648437 -16.6484375 75.51171875 C-8.00314068 84.82866214 3.0405622 91.93828515 13.44921875 99.13671875 C31.61635097 111.73449261 49.55285537 127.55869846 54.1171875 150.1875 C56.3925989 166.7940113 53.90304527 180.91960415 44.00390625 194.58984375 C35.6648258 205.00869487 23.46489464 210.18315647 10.5625 212.4375 C-9.44321443 213.72606992 -26.21337692 212.63865954 -42.49609375 199.81640625 C-55.14400702 188.06990328 -59.86974795 171.88781394 -62.4375 155.4375 C-58.85760978 154.56844278 -55.27316807 153.71987304 -51.6875 152.875 C-50.16382813 152.5047168 -50.16382813 152.5047168 -48.609375 152.12695312 C-47.6296875 151.89814453 -46.65 151.66933594 -45.640625 151.43359375 C-44.73989258 151.21888428 -43.83916016 151.0041748 -42.91113281 150.78295898 C-40.39451536 150.43149691 -38.82499855 150.63598263 -36.4375 151.4375 C-36.27894531 152.33210937 -36.12039063 153.22671875 -35.95703125 154.1484375 C-33.89448935 164.83719056 -30.86315369 175.00309969 -22.4375 182.4375 C-13.81568635 188.15550115 -4.00759017 189.5636526 6.0625 187.75 C13.5433018 185.90559542 19.25446674 181.83800656 23.5625 175.4375 C27.33949469 167.24385829 27.54474844 159.57174532 24.7109375 151.0703125 C18.13779262 136.00126606 3.57696776 126.96330928 -9.54785156 118.14208984 C-15.83929523 113.90176323 -21.71856552 109.43462721 -27.4375 104.4375 C-28.29601563 103.70015625 -29.15453125 102.9628125 -30.0390625 102.203125 C-43.63244642 90.29351371 -55.21656256 76.1961207 -56.58007812 57.48046875 C-57.2827867 41.99219816 -54.97276151 27.97964354 -44.28515625 16.03125 C-32.25837739 4.33584106 -16.42959287 -0.15844843 0 0 Z " fill="#6680F1" transform="translate(1372.4375,39.5625)"/>
<path d="M0 0 C8.91 0 17.82 0 27 0 C27.33 23.43 27.66 46.86 28 71 C30.97 68.36 33.94 65.72 37 63 C40.29296875 61.16015625 40.29296875 61.16015625 43.1875 60.0625 C44.15042969 59.68222656 45.11335937 59.30195312 46.10546875 58.91015625 C57.72356398 55.25696301 70.63829113 56.2677351 81.73046875 61.21875 C91.12027929 66.45957449 97.56225116 73.38203728 102.4375 82.875 C102.76766113 83.51034668 103.09782227 84.14569336 103.43798828 84.80029297 C107.71538925 93.7020322 108.30061128 103.24391726 108.22705078 112.97924805 C108.22734283 114.01473282 108.22763489 115.05021759 108.22793579 116.11708069 C108.22655585 119.49871558 108.21105816 122.88012292 108.1953125 126.26171875 C108.19157761 128.62254211 108.18873289 130.98336703 108.18673706 133.3441925 C108.17913807 139.52713375 108.15952194 145.70997951 108.1373291 151.8928833 C108.1167899 158.21438302 108.10771814 164.53589833 108.09765625 170.85742188 C108.07627227 183.23832973 108.04112086 195.61914195 108 208 C99.09 208 90.18 208 81 208 C80.98018066 204.99277832 80.96036133 201.98555664 80.93994141 198.88720703 C80.87290305 188.92867324 80.7952656 178.97024212 80.71247292 169.01182747 C80.66262065 162.97665816 80.61628979 156.94150543 80.578125 150.90625 C80.5411322 145.07713006 80.49473466 139.24815257 80.44193649 133.41915512 C80.42346674 131.20015854 80.40833169 128.98113151 80.39665604 126.76208878 C80.37966616 123.6434916 80.35060113 120.52521544 80.31884766 117.40673828 C80.31668747 116.49826645 80.31452728 115.58979462 80.31230164 114.65379333 C80.18918423 105.12977058 79.42079561 96.36916898 72.359375 89.375 C65.55709189 83.22337006 59.72703912 82.53801886 50.67578125 82.74609375 C44.05527203 83.20340841 38.71626285 85.15627058 34 90 C30.64223395 95.24115891 27.89420431 100.05676521 27.84178162 106.38493347 C27.8319928 107.28095779 27.82220398 108.17698212 27.81211853 109.10015869 C27.80636307 110.08055115 27.8006076 111.0609436 27.79467773 112.07104492 C27.77982834 113.62251976 27.77982834 113.62251976 27.76467896 115.20533752 C27.73304538 118.63035784 27.70829909 122.05539203 27.68359375 125.48046875 C27.66302583 127.85273096 27.64202941 130.22498949 27.62062073 132.59724426 C27.56538332 138.8459882 27.51598135 145.0947653 27.46777344 151.34356689 C27.41757064 157.71800697 27.36187819 164.09239879 27.30664062 170.46679688 C27.1990386 182.97782492 27.09810529 195.48889388 27 208 C18.09 208 9.18 208 0 208 C0 139.36 0 70.72 0 0 Z " fill="#6AB4F3" transform="translate(596,40)"/>
<path d="M0 0 C11.79105086 9.87723517 17.32342509 21.74722657 19.08984375 36.87890625 C19.59961923 44.86465327 19.44089503 52.87781866 19.3828125 60.875 C19.37720555 63.16284403 19.37294066 65.4506917 19.36994934 67.73854065 C19.35858711 73.71105184 19.32919562 79.68333829 19.2958374 85.65576172 C19.26494902 91.76982586 19.25140418 97.88392691 19.23632812 103.99804688 C19.20431642 115.95844711 19.15162044 127.91862269 19.08984375 139.87890625 C9.84984375 139.87890625 0.60984375 139.87890625 -8.91015625 139.87890625 C-9.40515625 133.93890625 -9.40515625 133.93890625 -9.91015625 127.87890625 C-10.71453125 128.91015625 -11.51890625 129.94140625 -12.34765625 131.00390625 C-18.57156986 138.22130842 -26.81120016 142.99591947 -36.33227539 144.18017578 C-38.82500784 144.31507952 -41.28904209 144.34698467 -43.78515625 144.31640625 C-45.10277954 144.30395874 -45.10277954 144.30395874 -46.44702148 144.29125977 C-53.24077203 144.11464362 -58.87071304 143.14425114 -64.91015625 139.87890625 C-66.32361328 139.11513672 -66.32361328 139.11513672 -67.765625 138.3359375 C-79.36022035 131.49809921 -86.87169401 121.53147752 -90.28515625 108.37890625 C-92.50842417 95.65814648 -90.73659718 83.0827125 -83.6328125 72.19140625 C-74.99999537 60.60268121 -62.97771826 53.78154557 -48.76025391 51.33740234 C-44.58501552 50.84018626 -40.54916565 50.75241432 -36.3515625 50.78125 C-35.56240952 50.78266495 -34.77325653 50.7840799 -33.96018982 50.78553772 C-31.4643051 50.7910907 -28.9685134 50.80363417 -26.47265625 50.81640625 C-24.7701836 50.82142734 -23.06770952 50.82598918 -21.36523438 50.83007812 C-17.21350637 50.84104467 -13.06184703 50.85827634 -8.91015625 50.87890625 C-9.20847847 34.18338305 -9.20847847 34.18338305 -17.41015625 19.94140625 C-25.08415553 13.61035684 -32.14239659 13.0429784 -41.91015625 13.87890625 C-47.69616409 15.50912452 -53.71608069 18.44203265 -57.02734375 23.62890625 C-59.4894192 28.22957279 -60.8199874 32.7914516 -61.91015625 37.87890625 C-67.65140406 37.37528802 -73.25730963 36.49655632 -78.91015625 35.37890625 C-79.58119385 35.24830811 -80.25223145 35.11770996 -80.94360352 34.9831543 C-85.78638716 34.00267534 -85.78638716 34.00267534 -86.91015625 32.87890625 C-86.2852057 19.75494475 -80.65338898 10.13197616 -71.22265625 1.19140625 C-50.98473523 -15.58271675 -20.89842662 -15.23200759 0 0 Z M-58.671875 80.55078125 C-63.91719175 86.29141847 -65.35265795 91.65325121 -65.15625 99.359375 C-64.452795 106.56141428 -61.20895248 112.02373017 -55.91015625 116.87890625 C-49.62366729 121.36925551 -43.50146193 122.69927566 -35.91015625 121.87890625 C-28.94314196 120.16890976 -22.40847874 117.65013535 -17.91015625 111.87890625 C-9.87217315 98.48226776 -8.59337331 87.20768056 -8.91015625 71.87890625 C-13.16022224 71.82900032 -17.41012724 71.79295046 -21.66040039 71.76904297 C-23.10248796 71.75906312 -24.54455571 71.74547441 -25.98657227 71.72802734 C-38.21982413 71.5838573 -49.29270623 71.64992929 -58.671875 80.55078125 Z " fill="#69A9F3" transform="translate(818.91015625,108.12109375)"/>
<path d="M0 0 C11.18299502 9.41459972 18.28454523 22.50018478 20.34375 36.99609375 C20.44438683 38.97806024 20.50135895 40.96259641 20.52075195 42.94702148 C20.54000481 44.67558632 20.54000481 44.67558632 20.55964661 46.43907166 C20.56703354 47.67347488 20.57442047 48.90787811 20.58203125 50.1796875 C20.590103 51.46738541 20.59817474 52.75508331 20.60649109 54.08180237 C20.62147173 56.80770734 20.63132867 59.53358678 20.63891602 62.25952148 C20.64773195 65.02635009 20.6685086 67.79266926 20.70043945 70.55932617 C20.95200861 92.85254358 20.57307581 111.23812517 5.34375 128.99609375 C-8.13793097 141.4843877 -21.35086369 144.63962663 -39.21875 144.3046875 C-52.79995436 143.74191751 -64.1424191 138.05508952 -73.46875 128.24609375 C-82.20879162 117.94253842 -87.72936823 105.51542219 -87.81738281 91.92749023 C-87.82699036 90.72531357 -87.8365979 89.5231369 -87.84649658 88.28453064 C-87.85074646 86.9918074 -87.85499634 85.69908417 -87.859375 84.3671875 C-87.86220238 83.7027318 -87.86502975 83.0382761 -87.86794281 82.35368538 C-87.8829045 78.83205905 -87.89215096 75.31047331 -87.89648438 71.78881836 C-87.9019413 68.18371084 -87.92591839 64.5789863 -87.95445633 60.97399807 C-87.97325853 58.17439257 -87.9782977 55.37487573 -87.97982025 52.57521248 C-87.98424988 50.61019104 -88.00281447 48.6452174 -88.02178955 46.68028259 C-87.98151027 30.24910876 -83.45187645 16.17382963 -71.9375 4.1796875 C-52.23826044 -14.67626269 -21.85435665 -16.48718376 0 0 Z M-53.05078125 20.0546875 C-58.58833364 26.75094915 -60.75729177 35.09973278 -60.81738281 43.62158203 C-60.82699036 44.72688263 -60.8365979 45.83218323 -60.84649658 46.97097778 C-60.85074646 48.15746918 -60.85499634 49.34396057 -60.859375 50.56640625 C-60.86507507 51.79841766 -60.87077515 53.03042908 -60.87664795 54.29977417 C-60.88608849 56.90719751 -60.89262817 59.51463273 -60.89648438 62.12207031 C-60.90616309 66.08550207 -60.93718556 70.04840921 -60.96875 74.01171875 C-60.97528328 76.55077819 -60.98053247 79.08984132 -60.984375 81.62890625 C-60.9967218 82.80325226 -61.0090686 83.97759827 -61.02178955 85.18753052 C-60.99354546 95.76778749 -59.66809151 105.62322782 -52.16015625 113.58203125 C-46.89284324 118.56955627 -40.91179802 121.02490458 -33.65625 121.37109375 C-25.93370176 120.98803084 -19.96406472 118.24897235 -14.37890625 112.94140625 C-6.53716938 104.08611156 -6.34588717 92.09706586 -6.35546875 80.84765625 C-6.34904106 79.14698502 -6.34904106 79.14698502 -6.34248352 77.41195679 C-6.33677132 75.02692326 -6.33621684 72.64187232 -6.34057617 70.25683594 C-6.34373492 66.63836502 -6.32024063 63.02071385 -6.29492188 59.40234375 C-6.29264822 57.0716156 -6.29194569 54.74088528 -6.29296875 52.41015625 C-6.283759 51.34415192 -6.27454926 50.27814758 -6.26506042 49.17984009 C-6.33150218 38.21517798 -8.0233725 27.34615437 -15.65625 18.99609375 C-26.73135235 10.09760111 -42.49211292 10.41416424 -53.05078125 20.0546875 Z " fill="#6458F0" transform="translate(1975.65625,108.00390625)"/>
<path d="M0 0 C8.91 0 17.82 0 27 0 C27.01458252 3.06780762 27.02916504 6.13561523 27.04418945 9.29638672 C27.09462099 19.45451668 27.16123127 29.61249474 27.23571491 39.77047539 C27.28036228 45.92672277 27.31963099 52.08290483 27.34643555 58.23925781 C27.37252446 64.18513506 27.41296679 70.13076019 27.46318626 76.07648087 C27.47981714 78.34012837 27.49135487 80.60381944 27.49761391 82.86751938 C27.50729598 86.04850179 27.53540496 89.22884463 27.56762695 92.40966797 C27.56547432 93.80042793 27.56547432 93.80042793 27.5632782 95.21928406 C27.68734273 103.9308564 29.16518503 112.03927476 35.3203125 118.53125 C41.85382274 124.24427291 48.38746778 125.382674 56.83203125 125.26953125 C64.84845483 124.58749275 70.29248266 121.49486634 75.52734375 115.48828125 C79.67980568 108.47205246 80.44460429 101.44401964 80.43237305 93.43139648 C80.4425647 92.41571091 80.45275635 91.40002533 80.46325684 90.3535614 C80.49323714 87.02601498 80.50262999 83.69875714 80.51171875 80.37109375 C80.5285765 78.05224156 80.54672821 75.73339845 80.56611633 73.41456604 C80.61350315 67.33359616 80.64338582 61.25266309 80.66955566 55.17156982 C80.69941827 48.95740491 80.74592903 42.74336668 80.79101562 36.52929688 C80.87692014 24.35291649 80.94278264 12.17654902 81 0 C89.91 0 98.82 0 108 0 C108 48.18 108 96.36 108 146 C99.09 146 90.18 146 81 146 C80.505 141.545 80.505 141.545 80 137 C79.0925 137.86625 78.185 138.7325 77.25 139.625 C65.7330277 149.54043014 53.86412704 150.72013811 39.37988281 150.17919922 C30.81918036 149.53459975 23.63919223 145.1722469 17 140 C16.39542969 139.54496094 15.79085938 139.08992187 15.16796875 138.62109375 C10.80465897 134.84875144 8.28454341 130.25199972 5.6875 125.1875 C5.34968506 124.53604004 5.01187012 123.88458008 4.66381836 123.21337891 C0.42253574 114.49465012 -0.29844118 105.61914293 -0.22705078 96.04248047 C-0.22734283 94.99738815 -0.22763489 93.95229584 -0.22793579 92.87553406 C-0.22655374 89.45599773 -0.21104579 86.03668528 -0.1953125 82.6171875 C-0.19157837 80.23251464 -0.18873329 77.84784023 -0.18673706 75.46316528 C-0.17913211 69.2128062 -0.15951073 62.96254132 -0.1373291 56.71221924 C-0.11680287 50.32378412 -0.10772089 43.93533365 -0.09765625 37.546875 C-0.07626174 25.03120213 -0.04110533 12.51562367 0 0 Z " fill="#656FF0" transform="translate(1550,102)"/>
<path d="M0 0 C9.24 0 18.48 0 28 0 C28 19.14 28 38.28 28 58 C39.88 58 51.76 58 64 58 C64 65.26 64 72.52 64 80 C52.12 80 40.24 80 28 80 C28.04041402 91.30129329 28.09761988 102.60216594 28.18390274 113.90320396 C28.22331187 119.15146459 28.25553254 124.39955908 28.27099609 129.64794922 C28.2862059 134.71859015 28.32072811 139.78877413 28.36830902 144.85921097 C28.3830783 146.78791951 28.39103844 148.71669331 28.39188385 150.64545822 C27.98171625 166.76438125 27.98171625 166.76438125 35.375 180.5 C41.45650954 183.97514831 46.23454378 184.52495078 53 183 C56.33443944 181.54276115 56.33443944 181.54276115 59 180 C59.66 180 60.32 180 61 180 C62.6735337 182.95449913 64.33763985 185.9142018 66 188.875 C66.71542969 190.13763672 66.71542969 190.13763672 67.4453125 191.42578125 C67.89648438 192.23144531 68.34765625 193.03710938 68.8125 193.8671875 C69.44091797 194.98262939 69.44091797 194.98262939 70.08203125 196.12060547 C71 198 71 198 71 200 C69.69370673 200.78130543 68.37947173 201.54933177 67.0625 202.3125 C65.96615234 202.95638672 65.96615234 202.95638672 64.84765625 203.61328125 C57.77904929 207.05546982 51.4144863 208.51410055 43.5625 208.375 C42.72992676 208.36484863 41.89735352 208.35469727 41.03955078 208.34423828 C29.84089035 208.06169825 21.32290086 204.91579256 13.05859375 197.18359375 C-1.0875375 182.05976012 -0.15618411 162.44608964 -0.09765625 143.0859375 C-0.09578814 141.26177001 -0.09436609 139.43760201 -0.09336853 137.61343384 C-0.08957431 132.84269799 -0.07977089 128.07199321 -0.06866455 123.30126953 C-0.05838345 118.42090271 -0.05385664 113.54053081 -0.04882812 108.66015625 C-0.03814547 99.10675507 -0.02057418 89.553385 0 80 C-5.28 80 -10.56 80 -16 80 C-16 72.74 -16 65.48 -16 58 C-10.72 58 -5.44 58 0 58 C0 38.86 0 19.72 0 0 Z " fill="#6BBCF3" transform="translate(504,44)"/>
<path d="M0 0 C8.91 0 17.82 0 27 0 C27 19.14 27 38.28 27 58 C38.88 58 50.76 58 63 58 C63 65.26 63 72.52 63 80 C51.12 80 39.24 80 27 80 C27.06307016 90.91009208 27.13860942 101.81990639 27.23571491 112.72974968 C27.28032121 117.79637924 27.31959858 122.86293019 27.34643555 127.9296875 C27.37256596 132.82520843 27.41303658 137.72042528 27.46318626 142.61575699 C27.47978936 144.47748132 27.49134426 146.33925818 27.49761391 148.20104599 C27.47665126 161.87548466 27.47665126 161.87548466 31 175 C31.4640625 176.485 31.4640625 176.485 31.9375 178 C33.29848177 180.56184803 34.29091222 181.0217183 37 182 C37.886875 182.391875 38.77375 182.78375 39.6875 183.1875 C46.59038407 184.88066024 51.82037902 183.23694432 58 180 C62.49949278 181.49983093 63.52636262 184.80363955 65.75 188.8125 C66.38615234 189.90014648 66.38615234 189.90014648 67.03515625 191.00976562 C67.43089844 191.71423828 67.82664062 192.41871094 68.234375 193.14453125 C68.59756836 193.78753174 68.96076172 194.43053223 69.33496094 195.09301758 C70.17296654 197.4959771 69.967067 198.66508847 69 201 C66.41796875 202.66796875 66.41796875 202.66796875 63.1875 204.1875 C61.60001953 204.95126953 61.60001953 204.95126953 59.98046875 205.73046875 C50.18352366 209.90347944 36.45695209 209.48773254 26.375 206.5 C15.11502134 201.94201146 7.6467241 193.58527667 2.94140625 182.5078125 C0.43963474 175.39751453 -0.14632976 168.53900516 -0.11352539 161.05712891 C-0.11367142 160.1784314 -0.11381744 159.29973389 -0.1139679 158.39440918 C-0.11327413 155.50510139 -0.1055069 152.61585896 -0.09765625 149.7265625 C-0.09579017 147.71731603 -0.09436716 145.70806911 -0.09336853 143.69882202 C-0.08955836 138.42167902 -0.0797409 133.14456373 -0.06866455 127.86743164 C-0.05841816 122.47803116 -0.053864 117.08862618 -0.04882812 111.69921875 C-0.03811726 101.13279839 -0.02053263 90.56640584 0 80 C-5.61 80 -11.22 80 -17 80 C-17 72.74 -17 65.48 -17 58 C-11.39 58 -5.78 58 0 58 C0 38.86 0 19.72 0 0 Z " fill="#678DF2" transform="translate(1171,44)"/>
<path d="M0 0 C8.91 0 17.82 0 27 0 C27 19.14 27 38.28 27 58 C39.21 58 51.42 58 64 58 C64 65.26 64 72.52 64 80 C51.79 80 39.58 80 27 80 C27.12017778 93.92588351 27.12017778 93.92588351 27.2578125 107.8515625 C27.31789283 113.53935348 27.37602049 119.22711328 27.421875 124.91503906 C27.45901401 129.50577293 27.50544758 134.0963309 27.55806351 138.68691254 C27.57645667 140.42976516 27.5916189 142.17265526 27.60334396 143.91556549 C27.15661194 162.41751622 27.15661194 162.41751622 34 179 C38.54341769 183.0151133 43.03137839 184.29287653 49 184 C51.17256457 183.42907915 53.12810768 182.70772528 55.17578125 181.7890625 C57.09450882 180.95912038 58.97024408 180.48503941 61 180 C62.6735337 182.95449913 64.33763985 185.9142018 66 188.875 C66.71542969 190.13763672 66.71542969 190.13763672 67.4453125 191.42578125 C67.89648438 192.23144531 68.34765625 193.03710938 68.8125 193.8671875 C69.44091797 194.98262939 69.44091797 194.98262939 70.08203125 196.12060547 C71 198 71 198 71 200 C68.75243216 201.15082685 66.50218252 202.29576858 64.25 203.4375 C63.61578125 203.76298828 62.9815625 204.08847656 62.328125 204.42382812 C52.41644855 209.43128966 40.33402323 209.44046472 29.51953125 207.31640625 C19.38455294 203.87137131 10.59220505 196.70925069 5.5234375 187.2421875 C-0.43876373 173.8882514 -0.278306 160.34897272 -0.1953125 146.015625 C-0.19157498 144.10463612 -0.18873151 142.1936453 -0.18673706 140.28265381 C-0.17915875 135.29161134 -0.15956115 130.30068822 -0.1373291 125.30969238 C-0.11674459 120.20126967 -0.10770858 115.09282737 -0.09765625 109.984375 C-0.07630891 99.98952289 -0.04117514 89.99479011 0 80 C-5.28 80 -10.56 80 -16 80 C-16 72.74 -16 65.48 -16 58 C-10.72 58 -5.44 58 0 58 C0 38.86 0 19.72 0 0 Z " fill="#6678F1" transform="translate(1463,44)"/>
<path d="M0 0 C-1.72966723 5.37107192 -3.56548065 10.69906632 -5.5 16 C-5.9021875 17.11375 -6.304375 18.2275 -6.71875 19.375 C-7.1415625 20.24125 -7.564375 21.1075 -8 22 C-11 23 -11 23 -13.34765625 22.00390625 C-14.24355469 21.52824219 -15.13945313 21.05257812 -16.0625 20.5625 C-22.3013272 17.6159299 -27.54671763 16.60151308 -34.2265625 18.69921875 C-40.33664228 21.41099573 -43.76765955 25.5353191 -46.75 31.5 C-49.04911819 37.93753094 -49.16275873 44.10519199 -49.20532227 50.86083984 C-49.22017166 52.32518967 -49.22017166 52.32518967 -49.23532104 53.81912231 C-49.26680742 57.03303638 -49.29164249 60.2469652 -49.31640625 63.4609375 C-49.33698689 65.69439062 -49.35798365 67.92783994 -49.37937927 70.1612854 C-49.4344853 76.03022174 -49.48394506 81.89919256 -49.53222656 87.76818848 C-49.58252545 93.76085466 -49.63816769 99.75347098 -49.69335938 105.74609375 C-49.80080064 117.49735475 -49.90178266 129.24865828 -50 141 C-58.91 141 -67.82 141 -77 141 C-77 92.82 -77 44.64 -77 -5 C-68.09 -5 -59.18 -5 -50 -5 C-49.67 -2.69 -49.34 -0.38 -49 2 C-48.39865234 1.41992188 -48.39865234 1.41992188 -47.78515625 0.828125 C-33.01743121 -12.70058456 -15.93381208 -10.62254139 0 0 Z " fill="#6894F2" transform="translate(1141,107)"/>
<path d="M0 0 C8.91 0 17.82 0 27 0 C27 48.18 27 96.36 27 146 C18.09 146 9.18 146 0 146 C0 97.82 0 49.64 0 0 Z " fill="#645EF0" transform="translate(1832,102)"/>
<path d="M0 0 C4.66743313 2.64959335 6.94520519 6.33561558 8.625 11.375 C9.4081704 17.67392762 8.94373282 22.47331752 5.16015625 27.6796875 C1.83907182 31.34724638 -1.11071624 33.08825664 -6.05859375 33.71484375 C-11.51898475 33.90006733 -15.80842796 33.63683717 -20.375 30.375 C-24.76400426 25.99795488 -26.52328806 22.31319735 -26.6875 16.125 C-26.62914014 10.60269833 -25.69626032 7.77342583 -22.375 3.375 C-16.04876181 -2.48834272 -7.91990606 -3.58104571 0 0 Z " fill="#6460F0" transform="translate(1854.375,49.625)"/>
</svg>
