<?xml version="1.0" encoding="UTF-8"?>
<svg version="1.1" xmlns="http://www.w3.org/2000/svg" width="128" height="128">
<path d="M0 0 C2.64 0 5.28 0 8 0 C8.33 15.18 8.66 30.36 9 46 C16.24822148 47.49029034 16.24822148 47.49029034 20 46 C22.64471761 41.51153958 22.34701593 36.59861369 22.4140625 31.54296875 C22.43342865 30.64000565 22.4527948 29.73704254 22.4727478 28.80671692 C22.53234082 25.93373953 22.57884769 23.06072163 22.625 20.1875 C22.66319845 18.23500895 22.70225127 16.28253441 22.7421875 14.33007812 C22.83802569 9.55352016 22.92213152 4.77688333 23 0 C25.31 0 27.62 0 30 0 C30.10164192 6.2986875 30.17156661 12.59716253 30.21972656 18.89648438 C30.23980888 21.03816634 30.26708037 23.1797937 30.30175781 25.32128906 C30.35042398 28.40443415 30.3730029 31.48685262 30.390625 34.5703125 C30.41127014 35.52366486 30.43191528 36.47701721 30.45318604 37.45925903 C30.45514933 43.31085802 29.85838718 46.52522871 26 51 C20.77319926 55.05956774 15.35054139 54.7658512 9 54 C3.89337561 51.67066256 2.01777525 49.15497397 0 44 C-0.39457579 40.59021338 -0.34996216 37.21767479 -0.29296875 33.7890625 C-0.28872391 32.82092621 -0.28447906 31.85278992 -0.28010559 30.85531616 C-0.26337956 27.77825527 -0.22573831 24.70186128 -0.1875 21.625 C-0.17244532 19.53256158 -0.15875829 17.44011283 -0.14648438 15.34765625 C-0.11349588 10.23151582 -0.06175528 5.11587079 0 0 Z " fill="#6DD7F4" transform="translate(13,38)"/>
<path d="M0 0 C2.64 0 5.28 0 8 0 C9.85303611 7.38687888 11.70426029 14.7742101 13.55419922 22.16186523 C14.18431107 24.67727046 14.81484438 27.19257015 15.44580078 29.70776367 C16.35038159 33.31401636 17.25346746 36.92064052 18.15625 40.52734375 C18.44060913 41.65961899 18.72496826 42.79189423 19.01794434 43.95848083 C19.27821411 44.99948441 19.53848389 46.04048798 19.80664062 47.11303711 C20.15305603 48.49536781 20.15305603 48.49536781 20.50646973 49.90562439 C21 52 21 52 21 53 C18.36 53 15.72 53 13 53 C11.68373308 49.38026598 11 46.90432869 11 43 C6.38 43 1.76 43 -3 43 C-3.66 46.3 -4.32 49.6 -5 53 C-7.64 53 -10.28 53 -13 53 C-10.62772242 40.88889868 -7.80443359 28.90790574 -4.8125 16.9375 C-4.63251465 16.21433594 -4.4525293 15.49117187 -4.26708984 14.74609375 C-3.75007964 12.67240768 -3.22935664 10.5996967 -2.70703125 8.52734375 C-2.4025708 7.31812256 -2.09811035 6.10890137 -1.78442383 4.86303711 C-1 2 -1 2 0 0 Z M3 17 C2.32900016 19.60311992 1.66304662 22.20735398 1 24.8125 C0.80921875 25.55048828 0.6184375 26.28847656 0.421875 27.04882812 C-0.35262914 30.10535341 -1 32.83373478 -1 36 C2.3 36 5.6 36 9 36 C8.38517411 33.0183929 7.75872174 30.04009328 7.125 27.0625 C6.95097656 26.21236328 6.77695313 25.36222656 6.59765625 24.48632812 C6.42363281 23.67744141 6.24960938 22.86855469 6.0703125 22.03515625 C5.91320801 21.2862915 5.75610352 20.53742676 5.59423828 19.76586914 C5.1588839 17.78565771 5.1588839 17.78565771 3 17 Z " fill="#699FF2" transform="translate(62,38)"/>
<path d="M0 0 C4.01811552 1.74118339 5.69875287 4.27426828 7.375 8.3125 C7.58125 9.199375 7.7875 10.08625 8 11 C5.69 11.66 3.38 12.32 1 13 C0.649375 12.195625 0.29875 11.39125 -0.0625 10.5625 C-1.85011749 7.67978877 -1.85011749 7.67978877 -5.4375 6.9375 C-8.98770111 6.69388361 -8.98770111 6.69388361 -11.5 8.5625 C-13.18789818 10.91889542 -13.18789818 10.91889542 -13.3125 13.75 C-11.2490272 18.8595517 -7.21451154 21.59266335 -3 25 C7.375 33.48214286 7.375 33.48214286 8.2734375 39.9765625 C8.54602887 45.57516989 7.03503395 48.62579372 3.5 52.75 C-0.3134391 55.92786591 -5.35711048 55.32656173 -10.046875 55.28125 C-14.01990277 54.9028664 -16.1179532 53.73424953 -19 51 C-21.69906178 47.46329835 -22.48940315 44.39113287 -23 40 C-19.535 39.505 -19.535 39.505 -16 39 C-15.5875 40.11375 -15.175 41.2275 -14.75 42.375 C-13.74831566 44.66588919 -13.16913184 45.85502985 -11.25 47.5 C-7.95142522 48.23301662 -5.26723806 47.73975201 -2 47 C-0.35371087 43.70742173 -0.46172982 41.6482757 -1 38 C-3.87473408 34.5503191 -7.51845313 32.04187918 -11.171875 29.47265625 C-15.69066451 26.27043135 -19.30349761 23.44161145 -21 18 C-21.63303208 13.35776473 -21.57721562 9.42784917 -19.8125 5.0625 C-14.38656684 -1.11183773 -7.70644007 -1.02623448 0 0 Z " fill="#656BF0" transform="translate(108,37)"/>
<path d="M0 0 C2.31 0 4.62 0 7 0 C7.10164192 6.2986875 7.17156661 12.59716253 7.21972656 18.89648438 C7.23980888 21.03816634 7.26708037 23.1797937 7.30175781 25.32128906 C7.35042398 28.40443415 7.3730029 31.48685262 7.390625 34.5703125 C7.41127014 35.52366486 7.43191528 36.47701721 7.45318604 37.45925903 C7.4550984 43.15907717 6.87997011 46.51306251 3 51 C-0.43602812 53.57702109 -1.60072868 54 -6 54 C-6 52.68 -6 51.36 -6 50 C-6.99 49.34 -7.98 48.68 -9 48 C-7.576875 47.6596875 -7.576875 47.6596875 -6.125 47.3125 C-2.93129461 46.3380755 -2.93129461 46.3380755 -1.83056641 44.0090332 C-0.67932844 39.83824898 -0.64309073 35.85260634 -0.5859375 31.54296875 C-0.56657135 30.64000565 -0.5472052 29.73704254 -0.5272522 28.80671692 C-0.46765918 25.93373953 -0.42115231 23.06072163 -0.375 20.1875 C-0.33680155 18.23500895 -0.29774873 16.28253441 -0.2578125 14.33007812 C-0.16197431 9.55352016 -0.07786848 4.77688333 0 0 Z " fill="#6BBDF3" transform="translate(36,38)"/>
<path d="M0 0 C0.99 0 1.98 0 3 0 C4.85303611 7.38687888 6.70426029 14.7742101 8.55419922 22.16186523 C9.18431107 24.67727046 9.81484438 27.19257015 10.44580078 29.70776367 C11.35038159 33.31401636 12.25346746 36.92064052 13.15625 40.52734375 C13.44060913 41.65961899 13.72496826 42.79189423 14.01794434 43.95848083 C14.27821411 44.99948441 14.53848389 46.04048798 14.80664062 47.11303711 C15.03758423 48.03459091 15.26852783 48.95614471 15.50646973 49.90562439 C16 52 16 52 16 53 C13.36 53 10.72 53 8 53 C6.68485224 49.62993386 5.99741274 47.14488673 6.0625 43.5 C5.98957594 39.41625248 4.84471604 37.62110927 3 34 C-1.17120716 23.08346233 -0.29874148 11.47780093 0 0 Z " fill="#678EF1" transform="translate(67,38)"/>
</svg>
